<svg id="Capa_1" enable-background="new 0 0 512 512" height="512" viewBox="0 0 512 512" width="512" xmlns="http://www.w3.org/2000/svg"><g><path d="m491.789 424.97h-84.789l-15-15v-30l-21-15h-69l-30-15v-30l-26.052-15h-34.948-45l-15-15v-30l-26.131-15h-98.343l-26.526 15v240h211 301v-60z" fill="#9b786f"/><path d="m512 439.97-20.211-15h-84.789l-15-15v-30l-21-15h-69l-30-15v-30l-26.052-15h-34.948v195h301z" fill="#704c55"/><path d="m211 103.905-211-91.875v217.94l30 15v-187.061l30 13.125v173.936h30v-160.811l91 39.375v181.436h30v-168.311l91 39.375v188.936h30v-175.811l90 39.375v196.436h30v-183.311l30 13.125v170.186l30-15v-174.815z" fill="#edf5ff"/><path d="m302 176.034v188.936h30v-175.811l90 39.375v196.436h30v-183.311l30 13.125v170.186l30-15v-174.815l-301-131.25v32.754z" fill="#d5e8fe"/><path d="m211 289.97h-60v30h60 61v-30z" fill="#704c55"/><g fill="#5a344b"><path d="m211 289.97h61v30h-61z"/><path d="m272 349.97h120v30h-120z"/><path d="m392 409.97h120v30h-120z"/></g><g><path d="m0 229.97h151v30h-151z" fill="#704c55"/></g></g></svg>