<svg id="Capa_1" enable-background="new 0 0 512 512" height="512" viewBox="0 0 512 512" width="512" xmlns="http://www.w3.org/2000/svg"><g><g><path d="m30 0h452v482h-452z" fill="#5b5555"/></g><path d="m256 0h226v482h-226z" fill="#463f3f"/><path d="m271 30h181v391h-181z" fill="#dfe7f4"/><path d="m60 30v41.463l15 44.011-15 10.069v185.477l15 14.138-15 35.842v60h129.789l6.211-15 36.211 15h8.789v-90l-15-11.684 15-18.316v-271z" fill="#f0f7ff"/><path d="m202.211 301-82.211-81.211v-58.33l-60-89.996v54.08l30 44.998v61.67l16.633 16.633-46.633 62.176v49.98l29.482-39.307 100.307 99.307h42.422l-63.746-63.746 32.803-26.254h39.732v-30z" fill="#c7cfe1"/><path d="m0 451h512v61h-512z" fill="#766e6e"/><path d="m256 451h256v61h-256z" fill="#5b5555"/><g><path d="m211 208h90v30h-90z" fill="#5b5555"/></g><path d="m256 208h45v30h-45z" fill="#463f3f"/></g></svg>