<?xml version="1.0" encoding="UTF-8" standalone="no"?>
<svg
   xmlns:dc="http://purl.org/dc/elements/1.1/"
   xmlns:cc="http://creativecommons.org/ns#"
   xmlns:rdf="http://www.w3.org/1999/02/22-rdf-syntax-ns#"
   xmlns:svg="http://www.w3.org/2000/svg"
   xmlns="http://www.w3.org/2000/svg"
   viewBox="0 0 1302.5 335"
   height="335"
   width="1302.5"
   xml:space="preserve"
   version="1.1"
   id="svg2"><metadata
     id="metadata8"><rdf:RDF><cc:Work
         rdf:about=""><dc:format>image/svg+xml</dc:format><dc:type
           rdf:resource="http://purl.org/dc/dcmitype/StillImage" /></cc:Work></rdf:RDF></metadata><defs
     id="defs6" /><g
     transform="matrix(1.25,0,0,-1.25,0,335)"
     id="g10"><g
       transform="scale(0.1,0.1)"
       id="g12"><path
         id="path14"
         style="fill:#c8c7c7;fill-opacity:1;fill-rule:evenodd;stroke:none"
         d="M 392.805,879.547 C 427.859,1695.43 1104.05,2350.09 1928.42,2350.09 l 0,-543.15 c -525.09,0 -957.279,-410.78 -991.787,-927.393 l -543.828,0" /><path
         id="path16"
         style="fill:#f47216;fill-opacity:1;fill-rule:evenodd;stroke:none"
         d="m 1618.64,879.547 c -48.24,187.023 -151.92,352.233 -292.38,476.743 -77.09,-84.94 -139.61,-183.22 -183.87,-290.86 50.79,-53.81 92.08,-116.711 121.13,-185.883 l 355.12,0" /><path
         id="path18"
         style="fill:#656263;fill-opacity:1;fill-rule:evenodd;stroke:none"
         d="m 2022.56,879.547 c -3.86,291.183 -139.17,551.583 -349.12,724.463 -93.08,-39.83 -178.96,-93.53 -254.99,-158.36 -0.27,-0.42 -0.46,-0.83 -0.73,-1.29 166.04,-142.37 282.87,-340.48 321,-564.813 l 283.84,0" /><path
         id="path20"
         style="fill:#656263;fill-opacity:1;fill-rule:evenodd;stroke:none"
         d="M 1637.92,2454.61 C 908.855,2379.77 328.172,1791.89 264.305,1059.79 l -241.3831,0 c 0,889.5 725.4921,1614.98 1614.9981,1614.98 l 0,-220.16" /><path
         id="path22"
         style="fill:#656263;fill-opacity:1;fill-rule:evenodd;stroke:none"
         d="m 3976.5,865.723 0,768.487 201.95,0 0,-601.08 554.08,0 0,-167.407 -756.03,0" /><path
         id="path24"
         style="fill:#656263;fill-opacity:1;fill-rule:evenodd;stroke:none"
         d="m 4955.85,1634.18 0,-601.07 c 7.67,-62.942 0,-173.52 200.92,-167.419 l 460.61,0 c 74.07,0 202.16,0 202.16,167.419 l 0,601.07 -202.16,0 0,-601.07 -460.61,0 0,601.07 -200.92,0" /><path
         id="path26"
         style="fill:#656263;fill-opacity:1;fill-rule:evenodd;stroke:none"
         d="m 3098.52,1188.67 278.1,0 -136.69,257.73 -141.41,-257.73 z m -379.95,-322.94 436.83,768.44 181.43,0 441.13,-768.44 -224.88,0 -88.02,161.77 -453.1,0 -86.93,-161.77 -206.46,0" /><path
         id="path28"
         style="fill:#656263;fill-opacity:1;fill-rule:evenodd;stroke:none"
         d="m 6366.98,1309.48 379.55,0 c 42.86,0 56.92,9.92 56.92,40.42 l 0,84.3 c 0,43.42 -30.91,43.42 -56.92,43.42 l -379.55,0 0,-168.14 z m -198.65,-443.773 0,768.493 635.12,0 c 134.79,0 194.2,-45.63 194.2,-156.58 l 0,-168.14 c 0,-97.5 -43.05,-155.8 -194.2,-155.8 l -436.47,0 0,-287.973 -198.65,0" /><path
         id="path30"
         style="fill:#656263;fill-opacity:1;fill-rule:evenodd;stroke:none"
         d="m 7432.2,1309.48 379.53,0 c 42.88,0 56.98,9.92 56.98,40.42 l 0,84.3 c 0,43.42 -30.97,43.42 -56.98,43.42 l -379.53,0 0,-168.14 z m -198.66,-443.773 0,768.493 635.17,0 c 134.76,0 194.2,-45.63 194.2,-156.58 l 0,-168.14 c 0,-97.5 -43.11,-155.8 -194.2,-155.8 l -53.94,0 350.78,-287.973 -287.87,0 -312.2,287.973 -133.28,0 0,-287.973 -198.66,0" /><path
         id="path32"
         style="fill:#656263;fill-opacity:1;fill-rule:evenodd;stroke:none"
         d="m 8568.55,1033.11 539.47,0 0,439.63 -539.47,0 0,-439.63 z m -53.88,601.07 644.95,0 c 81.04,0 147.38,-66.33 147.38,-147.38 l 0,-473.68 c 0,-81.085 -66.34,-147.39 -147.38,-147.39 l -644.95,0 c -81.04,0 -147.39,66.305 -147.39,147.39 l 0,473.68 c 0,81.05 66.35,147.38 147.39,147.38" /><path
         id="path34"
         style="fill:#656263;fill-opacity:1;fill-rule:evenodd;stroke:none"
         d="m 9641.88,865.723 0,768.487 776.92,0 0,-158.05 -575.83,0 0,-166.67 310.73,0 0,-162.69 -310.73,0 0,-281.077 -201.09,0" /><path
         id="path36"
         style="fill:#656263;fill-opacity:1;fill-rule:nonzero;stroke:none"
         d="m 114.172,108.629 76.625,145.547 76.637,-145.547 -153.262,0 z M 11.0664,2.21484 l 46.8672,0 36.3867,70.02346 192.4137,0 36.379,-70.02346 52.379,0 -158.23,284.48016 -50.723,0 L 11.0664,2.21484" /><path
         id="path38"
         style="fill:#656263;fill-opacity:1;fill-rule:nonzero;stroke:none"
         d="m 684.078,2.21484 262.985,0 0,39.69536 -215.563,0 0,244.7848 -47.422,0 0,-284.48016" /><path
         id="path40"
         style="fill:#656263;fill-opacity:1;fill-rule:nonzero;stroke:none"
         d="m 1279.88,286.695 -47.42,0 0,-217.2145 c -0.08,-17.461 1.93,-31.1524 6.08,-40.9883 4.12,-9.8281 11.03,-16.6289 20.75,-20.58595 9.84,-3.94531 23.07,-5.875 39.89,-5.69141 l 168.71,0 c 16.99,-0.09375 30.31,1.83985 39.97,5.78516 9.65,4.0469 16.44,10.9375 20.39,20.7734 4.03,9.8282 5.98,23.4219 5.8,40.7071 l 0,217.2145 -46.87,0 0,-244.7848 -207.3,0 0,244.7848" /><path
         id="path42"
         style="fill:#656263;fill-opacity:1;fill-rule:nonzero;stroke:none"
         d="m 1936.91,235.965 c 3.07,-8.719 6.43,-15.789 9.83,-21.313 3.49,-5.601 6.61,-10.195 9.47,-13.964 l 113.01,-153.8169 12.12,0 108.62,158.2339 c 2.2,3.024 4.63,7.067 7.53,12.125 2.85,5.055 5.98,11.301 9.56,18.735 -0.55,-10.465 -1.15,-19.281 -1.48,-26.277 -0.45,-7.067 -0.72,-12.305 -0.72,-15.614 l 0,-191.85916 43.55,0 0,284.48016 -43.55,0 -129.01,-185.242 -138.39,185.242 -38.59,0 0,-284.48016 40.25,0 0,191.85916 c 0,5.512 -0.09,11.848 -0.28,18.922 -0.27,6.996 -0.96,14.707 -1.92,22.969" /><path
         id="path44"
         style="fill:#656263;fill-opacity:1;fill-rule:nonzero;stroke:none"
         d="m 2613.22,2.24219 47.4063,0 0,284.48 -47.4063,0 0,-284.48 z" /><path
         id="path46"
         style="fill:#656263;fill-opacity:1;fill-rule:nonzero;stroke:none"
         d="m 3024.9,2.21484 43.55,0 0,167.60916 c 0,10.469 -0.18,20.852 -0.65,31.141 -0.45,10.301 -1.28,20.676 -2.66,31.148 4.78,-7.8 9.65,-14.23 14.7,-19.101 5.05,-4.871 9.75,-9.199 13.97,-12.871 l 218.87,-197.92616 26.47,0 0,284.48016 -43.55,0 0,-156.019 c -0.1,-10.199 0.09,-21.137 0.55,-32.7112 0.45,-11.6718 1.74,-24.0664 3.85,-37.3007 -5.79,7.4414 -11.4,14.1445 -16.91,20.2109 -5.46,5.9688 -10.65,11.2148 -15.61,15.6172 l -212.81,190.2028 -29.77,0 0,-284.48016" /><path
         id="path48"
         style="fill:#656263;fill-opacity:1;fill-rule:nonzero;stroke:none"
         d="m 3703.41,2.24219 47.4102,0 0,284.48 -47.4102,0 0,-284.48 z" /><path
         id="path50"
         style="fill:#656263;fill-opacity:1;fill-rule:nonzero;stroke:none"
         d="m 4162.47,286.695 -47.41,0 0,-217.2145 c -0.1,-17.461 1.94,-31.1524 6.07,-40.9883 4.14,-9.8281 11.03,-16.6289 20.77,-20.58595 9.83,-3.94531 23.06,-5.875 39.88,-5.69141 l 168.7,0 c 17,-0.09375 30.32,1.83985 39.97,5.78516 9.65,4.0469 16.44,10.9375 20.39,20.7734 4.06,9.8282 5.98,23.4219 5.8,40.7071 l 0,217.2145 -46.88,0 0,-244.7848 -207.29,0 0,244.7848" /><path
         id="path52"
         style="fill:#656263;fill-opacity:1;fill-rule:nonzero;stroke:none"
         d="m 4819.5,235.965 c 3.13,-8.719 6.44,-15.789 9.83,-21.313 3.49,-5.601 6.62,-10.195 9.47,-13.964 l 113.02,-153.8169 12.14,0 108.59,158.2339 c 2.22,3.024 4.69,7.067 7.54,12.125 2.84,5.055 5.97,11.301 9.56,18.735 -0.56,-10.465 -1.1,-19.281 -1.47,-26.277 -0.47,-7.067 -0.74,-12.305 -0.74,-15.614 l 0,-191.85916 43.56,0 0,284.48016 -43.56,0 -129.01,-185.242 -138.37,185.242 -38.6,0 0,-284.48016 40.25,0 0,191.85916 c 0,5.512 -0.1,11.848 -0.28,18.922 -0.28,6.996 -0.91,14.707 -1.93,22.969" /><path
         id="path54"
         style="fill:#656263;fill-opacity:1;fill-rule:nonzero;stroke:none"
         d="m 6583.8,248.105 0,-41.347 40.8,11.582 0,6.066 c 0.09,16.27 -2.2,28.848 -6.71,37.946 -4.59,9.097 -11.76,15.437 -21.59,19.109 -9.83,3.684 -22.6,5.426 -38.4,5.25 l -151.61,0 c -16.83,0.176 -30.06,-1.746 -39.71,-5.707 -9.65,-3.945 -16.54,-10.742 -20.58,-20.574 -4.05,-9.832 -5.97,-23.535 -5.88,-40.989 l 0,-24.804 c -0.09,-17.465 1.83,-31.157 5.88,-40.989 4.04,-9.832 10.93,-16.628 20.58,-20.578 9.65,-3.957 22.88,-5.879 39.71,-5.703 l 178.61,0 0,-85.4412 -211.7,0 0,45.75 -44.11,-10.4727 0,-7.7226 c -0.1,-17.2657 1.84,-30.8633 5.89,-40.6992 4.03,-9.8321 11.02,-16.7188 20.75,-20.76958 9.75,-3.94531 23.07,-5.87109 40.08,-5.78516 l 165.94,0 c 16.99,-0.08593 30.32,1.83985 39.97,5.78516 9.65,4.05078 16.44,10.93748 20.39,20.76958 4.06,9.8359 5.98,23.4335 5.8,40.6992 l 0,31.9845 c 0.18,16.996 -1.74,30.41 -5.61,40.246 -3.95,9.828 -10.66,16.809 -20.4,20.953 -9.65,4.129 -22.97,6.141 -40.15,6.055 l -179.17,0 0,79.386 201.22,0" /><path
         id="path56"
         style="fill:#656263;fill-opacity:1;fill-rule:nonzero;stroke:none"
         d="m 7076.52,2.21484 47.42,0 0,125.15216 142.78,159.328 -57.88,0 -106.41,-126.793 -111.35,126.793 -59.01,0 144.45,-160.429 0,-124.05116" /><path
         id="path58"
         style="fill:#656263;fill-opacity:1;fill-rule:nonzero;stroke:none"
         d="m 7817.34,248.105 0,-41.347 40.8,11.582 0,6.066 c 0.08,16.27 -2.2,28.848 -6.71,37.946 -4.59,9.097 -11.76,15.437 -21.59,19.109 -9.83,3.684 -22.61,5.426 -38.4,5.25 l -151.62,0 c -16.82,0.176 -30.05,-1.746 -39.7,-5.707 -9.65,-3.945 -16.53,-10.742 -20.58,-20.574 -4.05,-9.832 -5.97,-23.535 -5.88,-40.989 l 0,-24.804 c -0.09,-17.465 1.83,-31.157 5.88,-40.989 4.05,-9.832 10.93,-16.628 20.58,-20.578 9.65,-3.957 22.88,-5.879 39.7,-5.703 l 178.62,0 0,-85.4412 -211.7,0 0,45.75 -44.11,-10.4727 0,-7.7226 c -0.09,-17.2657 1.83,-30.8633 5.88,-40.6992 4.04,-9.8321 11.03,-16.7188 20.76,-20.76958 9.75,-3.94531 23.07,-5.87109 40.07,-5.78516 l 165.95,0 c 16.99,-0.08593 30.32,1.83985 39.97,5.78516 9.65,4.05078 16.44,10.93748 20.38,20.76958 4.06,9.8359 5.99,23.4335 5.81,40.6992 l 0,31.9845 c 0.18,16.996 -1.75,30.41 -5.62,40.246 -3.95,9.828 -10.65,16.809 -20.39,20.953 -9.65,4.129 -22.98,6.141 -40.15,6.055 l -179.17,0 0,79.386 201.22,0" /><path
         id="path60"
         style="fill:#656263;fill-opacity:1;fill-rule:nonzero;stroke:none"
         d="m 8332.09,248.105 130.67,0 0,38.606 -308.2,0 0,-38.606 130.11,0 0,-245.87844 47.42,0 0,245.87844" /><path
         id="path62"
         style="fill:#656263;fill-opacity:1;fill-rule:nonzero;stroke:none"
         d="m 8759.21,2.21484 276.22,0 0,39.14846 -228.8,0 0,90.4217 138.38,0 0,37.481 -138.38,0 0,79.39 226.6,0 0,38.039 -274.02,0 0,-284.48016" /><path
         id="path64"
         style="fill:#656263;fill-opacity:1;fill-rule:nonzero;stroke:none"
         d="m 9403.01,235.965 c 3.11,-8.719 6.42,-15.789 9.81,-21.313 3.51,-5.601 6.63,-10.195 9.48,-13.964 l 113.03,-153.8169 12.12,0 108.61,158.2339 c 2.2,3.024 4.68,7.067 7.53,12.125 2.86,5.055 5.98,11.301 9.56,18.735 -0.55,-10.465 -1.11,-19.281 -1.47,-26.277 -0.46,-7.067 -0.73,-12.305 -0.73,-15.614 l 0,-191.85916 43.55,0 0,284.48016 -43.55,0 -129.01,-185.242 -138.39,185.242 -38.58,0 0,-284.48016 40.24,0 0,191.85916 c 0,5.512 -0.1,11.848 -0.27,18.922 -0.28,6.996 -0.92,14.707 -1.93,22.969" /><path
         id="path66"
         style="fill:#656263;fill-opacity:1;fill-rule:nonzero;stroke:none"
         d="m 10321.9,248.105 0,-41.347 40.8,11.582 0,6.066 c 0.1,16.27 -2.2,28.848 -6.7,37.946 -4.6,9.097 -11.8,15.437 -21.6,19.109 -9.9,3.684 -22.6,5.426 -38.4,5.25 l -151.6,0 c -16.9,0.176 -30.1,-1.746 -39.7,-5.707 -9.7,-3.945 -16.6,-10.742 -20.6,-20.574 -4.1,-9.832 -6,-23.535 -5.9,-40.989 l 0,-24.804 c -0.1,-17.465 1.8,-31.157 5.9,-40.989 4,-9.832 10.9,-16.628 20.6,-20.578 9.6,-3.957 22.8,-5.879 39.7,-5.703 l 178.6,0 0,-85.4412 -211.7,0 0,45.75 -44.1,-10.4727 0,-7.7226 c -0.1,-17.2657 1.8,-30.8633 5.9,-40.6992 4,-9.8321 11,-16.7188 20.7,-20.76958 9.8,-3.94531 23.1,-5.87109 40.1,-5.78516 l 165.9,0 c 17,-0.08593 30.4,1.83985 40,5.78516 9.7,4.05078 16.5,10.93748 20.4,20.76958 4,9.8359 6,23.4335 5.8,40.6992 l 0,31.9845 c 0.2,16.996 -1.8,30.41 -5.6,40.246 -4,9.828 -10.7,16.809 -20.4,20.953 -9.7,4.129 -23,6.141 -40.2,6.055 l -179.1,0 0,79.386 201.2,0" /><path
         id="path68"
         style="fill:none;stroke:#656263;stroke-width:2.50020003;stroke-linecap:butt;stroke-linejoin:miter;stroke-miterlimit:22.9260006;stroke-dasharray:none;stroke-opacity:1"
         d="m 114.172,108.629 76.625,145.547 76.637,-145.547 -153.262,0 z M 11.0664,2.21484 l 46.8672,0 36.3867,70.02346 192.4137,0 36.379,-70.02346 52.379,0 -158.23,284.48016 -50.723,0 L 11.0664,2.21484 Z" /><path
         id="path70"
         style="fill:none;stroke:#656263;stroke-width:2.50020003;stroke-linecap:butt;stroke-linejoin:miter;stroke-miterlimit:22.9260006;stroke-dasharray:none;stroke-opacity:1"
         d="m 684.078,2.21484 262.985,0 0,39.69536 -215.563,0 0,244.7848 -47.422,0 0,-284.48016 z" /><path
         id="path72"
         style="fill:none;stroke:#656263;stroke-width:2.50020003;stroke-linecap:butt;stroke-linejoin:miter;stroke-miterlimit:22.9260006;stroke-dasharray:none;stroke-opacity:1"
         d="m 1279.88,286.695 -47.42,0 0,-217.2145 c -0.08,-17.461 1.93,-31.1524 6.08,-40.9883 4.12,-9.8281 11.03,-16.6289 20.75,-20.58595 9.84,-3.94531 23.07,-5.875 39.89,-5.69141 l 168.71,0 c 16.99,-0.09375 30.31,1.83985 39.97,5.78516 9.65,4.0469 16.44,10.9375 20.39,20.7734 4.03,9.8282 5.98,23.4219 5.8,40.7071 l 0,217.2145 -46.87,0 0,-244.7848 -207.3,0 0,244.7848 z" /><path
         id="path74"
         style="fill:none;stroke:#656263;stroke-width:2.50020003;stroke-linecap:butt;stroke-linejoin:miter;stroke-miterlimit:22.9260006;stroke-dasharray:none;stroke-opacity:1"
         d="m 1936.91,235.965 c 3.07,-8.719 6.43,-15.789 9.83,-21.313 3.49,-5.601 6.61,-10.195 9.47,-13.964 l 113.01,-153.8169 12.12,0 108.62,158.2339 c 2.2,3.024 4.63,7.067 7.53,12.125 2.85,5.055 5.98,11.301 9.56,18.735 -0.55,-10.465 -1.15,-19.281 -1.48,-26.277 -0.45,-7.067 -0.72,-12.305 -0.72,-15.614 l 0,-191.85916 43.55,0 0,284.48016 -43.55,0 -129.01,-185.242 -138.39,185.242 -38.59,0 0,-284.48016 40.25,0 0,191.85916 c 0,5.512 -0.09,11.848 -0.28,18.922 -0.27,6.996 -0.96,14.707 -1.92,22.969 z" /><path
         id="path76"
         style="fill:none;stroke:#656263;stroke-width:2.50020003;stroke-linecap:butt;stroke-linejoin:miter;stroke-miterlimit:22.9260006;stroke-dasharray:none;stroke-opacity:1"
         d="m 2613.22,2.24219 47.4063,0 0,284.48 -47.4063,0 0,-284.48 z" /><path
         id="path78"
         style="fill:none;stroke:#656263;stroke-width:2.50020003;stroke-linecap:butt;stroke-linejoin:miter;stroke-miterlimit:22.9260006;stroke-dasharray:none;stroke-opacity:1"
         d="m 3024.9,2.21484 43.55,0 0,167.60916 c 0,10.469 -0.18,20.852 -0.65,31.141 -0.45,10.301 -1.28,20.676 -2.66,31.148 4.78,-7.8 9.65,-14.23 14.7,-19.101 5.05,-4.871 9.75,-9.199 13.97,-12.871 l 218.87,-197.92616 26.47,0 0,284.48016 -43.55,0 0,-156.019 c -0.1,-10.199 0.09,-21.137 0.55,-32.7112 0.45,-11.6718 1.74,-24.0664 3.85,-37.3007 -5.79,7.4414 -11.4,14.1445 -16.91,20.2109 -5.46,5.9688 -10.65,11.2148 -15.61,15.6172 l -212.81,190.2028 -29.77,0 0,-284.48016 z" /><path
         id="path80"
         style="fill:none;stroke:#656263;stroke-width:2.50020003;stroke-linecap:butt;stroke-linejoin:miter;stroke-miterlimit:22.9260006;stroke-dasharray:none;stroke-opacity:1"
         d="m 3703.41,2.24219 47.4102,0 0,284.48 -47.4102,0 0,-284.48 z" /><path
         id="path82"
         style="fill:none;stroke:#656263;stroke-width:2.50020003;stroke-linecap:butt;stroke-linejoin:miter;stroke-miterlimit:22.9260006;stroke-dasharray:none;stroke-opacity:1"
         d="m 4162.47,286.695 -47.41,0 0,-217.2145 c -0.1,-17.461 1.94,-31.1524 6.07,-40.9883 4.14,-9.8281 11.03,-16.6289 20.77,-20.58595 9.83,-3.94531 23.06,-5.875 39.88,-5.69141 l 168.7,0 c 17,-0.09375 30.32,1.83985 39.97,5.78516 9.65,4.0469 16.44,10.9375 20.39,20.7734 4.06,9.8282 5.98,23.4219 5.8,40.7071 l 0,217.2145 -46.88,0 0,-244.7848 -207.29,0 0,244.7848 z" /><path
         id="path84"
         style="fill:none;stroke:#656263;stroke-width:2.50020003;stroke-linecap:butt;stroke-linejoin:miter;stroke-miterlimit:22.9260006;stroke-dasharray:none;stroke-opacity:1"
         d="m 4819.5,235.965 c 3.13,-8.719 6.44,-15.789 9.83,-21.313 3.49,-5.601 6.62,-10.195 9.47,-13.964 l 113.02,-153.8169 12.14,0 108.59,158.2339 c 2.22,3.024 4.69,7.067 7.54,12.125 2.84,5.055 5.97,11.301 9.56,18.735 -0.56,-10.465 -1.1,-19.281 -1.47,-26.277 -0.47,-7.067 -0.74,-12.305 -0.74,-15.614 l 0,-191.85916 43.56,0 0,284.48016 -43.56,0 -129.01,-185.242 -138.37,185.242 -38.6,0 0,-284.48016 40.25,0 0,191.85916 c 0,5.512 -0.1,11.848 -0.28,18.922 -0.28,6.996 -0.91,14.707 -1.93,22.969 z" /><path
         id="path86"
         style="fill:none;stroke:#656263;stroke-width:2.50020003;stroke-linecap:butt;stroke-linejoin:miter;stroke-miterlimit:22.9260006;stroke-dasharray:none;stroke-opacity:1"
         d="m 6583.8,248.105 0,-41.347 40.8,11.582 0,6.066 c 0.09,16.27 -2.2,28.848 -6.71,37.946 -4.59,9.097 -11.76,15.437 -21.59,19.109 -9.83,3.684 -22.6,5.426 -38.4,5.25 l -151.61,0 c -16.83,0.176 -30.06,-1.746 -39.71,-5.707 -9.65,-3.945 -16.54,-10.742 -20.58,-20.574 -4.05,-9.832 -5.97,-23.535 -5.88,-40.989 l 0,-24.804 c -0.09,-17.465 1.83,-31.157 5.88,-40.989 4.04,-9.832 10.93,-16.628 20.58,-20.578 9.65,-3.957 22.88,-5.879 39.71,-5.703 l 178.61,0 0,-85.4412 -211.7,0 0,45.75 -44.11,-10.4727 0,-7.7226 c -0.1,-17.2657 1.84,-30.8633 5.89,-40.6992 4.03,-9.8321 11.02,-16.7188 20.75,-20.76958 9.75,-3.94531 23.07,-5.87109 40.08,-5.78516 l 165.94,0 c 16.99,-0.08593 30.32,1.83985 39.97,5.78516 9.65,4.05078 16.44,10.93748 20.39,20.76958 4.06,9.8359 5.98,23.4335 5.8,40.6992 l 0,31.9845 c 0.18,16.996 -1.74,30.41 -5.61,40.246 -3.95,9.828 -10.66,16.809 -20.4,20.953 -9.65,4.129 -22.97,6.141 -40.15,6.055 l -179.17,0 0,79.386 201.22,0 z" /><path
         id="path88"
         style="fill:none;stroke:#656263;stroke-width:2.50020003;stroke-linecap:butt;stroke-linejoin:miter;stroke-miterlimit:22.9260006;stroke-dasharray:none;stroke-opacity:1"
         d="m 7076.52,2.21484 47.42,0 0,125.15216 142.78,159.328 -57.88,0 -106.41,-126.793 -111.35,126.793 -59.01,0 144.45,-160.429 0,-124.05116 z" /><path
         id="path90"
         style="fill:none;stroke:#656263;stroke-width:2.50020003;stroke-linecap:butt;stroke-linejoin:miter;stroke-miterlimit:22.9260006;stroke-dasharray:none;stroke-opacity:1"
         d="m 7817.34,248.105 0,-41.347 40.8,11.582 0,6.066 c 0.08,16.27 -2.2,28.848 -6.71,37.946 -4.59,9.097 -11.76,15.437 -21.59,19.109 -9.83,3.684 -22.61,5.426 -38.4,5.25 l -151.62,0 c -16.82,0.176 -30.05,-1.746 -39.7,-5.707 -9.65,-3.945 -16.53,-10.742 -20.58,-20.574 -4.05,-9.832 -5.97,-23.535 -5.88,-40.989 l 0,-24.804 c -0.09,-17.465 1.83,-31.157 5.88,-40.989 4.05,-9.832 10.93,-16.628 20.58,-20.578 9.65,-3.957 22.88,-5.879 39.7,-5.703 l 178.62,0 0,-85.4412 -211.7,0 0,45.75 -44.11,-10.4727 0,-7.7226 c -0.09,-17.2657 1.83,-30.8633 5.88,-40.6992 4.04,-9.8321 11.03,-16.7188 20.76,-20.76958 9.75,-3.94531 23.07,-5.87109 40.07,-5.78516 l 165.95,0 c 16.99,-0.08593 30.32,1.83985 39.97,5.78516 9.65,4.05078 16.44,10.93748 20.38,20.76958 4.06,9.8359 5.99,23.4335 5.81,40.6992 l 0,31.9845 c 0.18,16.996 -1.75,30.41 -5.62,40.246 -3.95,9.828 -10.65,16.809 -20.39,20.953 -9.65,4.129 -22.98,6.141 -40.15,6.055 l -179.17,0 0,79.386 201.22,0 z" /><path
         id="path92"
         style="fill:none;stroke:#656263;stroke-width:2.50020003;stroke-linecap:butt;stroke-linejoin:miter;stroke-miterlimit:22.9260006;stroke-dasharray:none;stroke-opacity:1"
         d="m 8332.09,248.105 130.67,0 0,38.606 -308.2,0 0,-38.606 130.11,0 0,-245.87844 47.42,0 0,245.87844 z" /><path
         id="path94"
         style="fill:none;stroke:#656263;stroke-width:2.50020003;stroke-linecap:butt;stroke-linejoin:miter;stroke-miterlimit:22.9260006;stroke-dasharray:none;stroke-opacity:1"
         d="m 8759.21,2.21484 276.22,0 0,39.14846 -228.8,0 0,90.4217 138.38,0 0,37.481 -138.38,0 0,79.39 226.6,0 0,38.039 -274.02,0 0,-284.48016 z" /><path
         id="path96"
         style="fill:none;stroke:#656263;stroke-width:2.50020003;stroke-linecap:butt;stroke-linejoin:miter;stroke-miterlimit:22.9260006;stroke-dasharray:none;stroke-opacity:1"
         d="m 9403.01,235.965 c 3.11,-8.719 6.42,-15.789 9.81,-21.313 3.51,-5.601 6.63,-10.195 9.48,-13.964 l 113.03,-153.8169 12.12,0 108.61,158.2339 c 2.2,3.024 4.68,7.067 7.53,12.125 2.86,5.055 5.98,11.301 9.56,18.735 -0.55,-10.465 -1.11,-19.281 -1.47,-26.277 -0.46,-7.067 -0.73,-12.305 -0.73,-15.614 l 0,-191.85916 43.55,0 0,284.48016 -43.55,0 -129.01,-185.242 -138.39,185.242 -38.58,0 0,-284.48016 40.24,0 0,191.85916 c 0,5.512 -0.1,11.848 -0.27,18.922 -0.28,6.996 -0.92,14.707 -1.93,22.969 z" /><path
         id="path98"
         style="fill:none;stroke:#656263;stroke-width:2.50020003;stroke-linecap:butt;stroke-linejoin:miter;stroke-miterlimit:22.9260006;stroke-dasharray:none;stroke-opacity:1"
         d="m 10321.9,248.105 0,-41.347 40.8,11.582 0,6.066 c 0.1,16.27 -2.2,28.848 -6.7,37.946 -4.6,9.097 -11.8,15.437 -21.6,19.109 -9.9,3.684 -22.6,5.426 -38.4,5.25 l -151.6,0 c -16.9,0.176 -30.1,-1.746 -39.7,-5.707 -9.7,-3.945 -16.6,-10.742 -20.6,-20.574 -4.1,-9.832 -6,-23.535 -5.9,-40.989 l 0,-24.804 c -0.1,-17.465 1.8,-31.157 5.9,-40.989 4,-9.832 10.9,-16.628 20.6,-20.578 9.6,-3.957 22.8,-5.879 39.7,-5.703 l 178.6,0 0,-85.4412 -211.7,0 0,45.75 -44.1,-10.4727 0,-7.7226 c -0.1,-17.2657 1.8,-30.8633 5.9,-40.6992 4,-9.8321 11,-16.7188 20.7,-20.76958 9.8,-3.94531 23.1,-5.87109 40.1,-5.78516 l 165.9,0 c 17,-0.08593 30.4,1.83985 40,5.78516 9.7,4.05078 16.5,10.93748 20.4,20.76958 4,9.8359 6,23.4335 5.8,40.6992 l 0,31.9845 c 0.2,16.996 -1.8,30.41 -5.6,40.246 -4,9.828 -10.7,16.809 -20.4,20.953 -9.7,4.129 -23,6.141 -40.2,6.055 l -179.1,0 0,79.386 201.2,0 z" /></g></g></svg>