<?xml version="1.0" encoding="utf-8"?>
<!-- Generator: Adobe Illustrator 17.1.0, SVG Export Plug-In . SVG Version: 6.00 Build 0)  -->
<!DOCTYPE svg PUBLIC "-//W3C//DTD SVG 1.1//EN" "http://www.w3.org/Graphics/SVG/1.1/DTD/svg11.dtd">
<svg version="1.1" id="Ebene_1" xmlns="http://www.w3.org/2000/svg" xmlns:xlink="http://www.w3.org/1999/xlink" x="0px" y="0px"
	 viewBox="108 -2.5 215 37" enable-background="new 108 -2.5 215 37" xml:space="preserve">
<g>
	<path d="M139.007,26.994c0,5.211-2.909,7.506-8.394,7.506h-22.178l1.377-4.995h20.651c1.799,0,2.747-0.494,2.747-2.511v-0.557
		c0-2.016-0.947-2.511-2.747-2.511h-14.071c-5.486,0-8.394-2.294-8.394-7.506v-0.228c0-5.211,2.908-7.506,8.394-7.506h21.471
		l-1.376,4.995h-19.945c-1.799,0-2.747,0.494-2.747,2.511v0.228c0,2.016,0.947,2.511,2.747,2.511h14.071
		c5.486,0,8.394,2.294,8.394,7.506L139.007,26.994L139.007,26.994z"/>
	<path d="M173.434,34.5h-20.132c-5.679,0-8.84-2.523-8.84-7.951v-9.911c0-5.428,3.16-7.951,8.84-7.951h19.984l-1.379,4.995h-18.454
		c-1.847,0-3.192,0.833-3.192,2.956v9.911c0,2.123,1.345,2.957,3.192,2.957h18.607L173.434,34.5L173.434,34.5z"/>
	<polygon points="203.999,23.572 184.374,23.572 184.374,34.5 178.576,34.5 178.576,8.687 184.374,8.687 184.374,18.668 
		203.999,18.668 203.999,8.687 209.796,8.687 209.796,34.5 203.999,34.5 	"/>
	<path d="M284.32,34.5h-20.132c-5.679,0-8.84-2.523-8.84-7.951v-9.911c0-5.428,3.16-7.951,8.84-7.951h19.984l-1.379,4.995h-18.454
		c-1.847,0-3.192,0.833-3.192,2.956v9.911c0,2.123,1.345,2.957,3.192,2.957h18.607L284.32,34.5L284.32,34.5z"/>
	<path d="M216.572,26.549V8.687h5.798v17.862c0,2.123,1.345,2.957,3.192,2.957h14.599c1.847,0,3.192-0.833,3.192-2.957V8.687h5.798
		v17.862c0,5.428-3.159,7.951-8.84,7.951h-14.899C219.732,34.5,216.572,31.978,216.572,26.549L216.572,26.549z"/>
	<path d="M317.171,26.549v-9.911c0-2.123-1.345-2.956-3.192-2.956h-16.614c-1.847,0-3.192,0.833-3.192,2.956v9.911
		c0,2.123,1.345,2.957,3.192,2.957h16.614C315.827,29.506,317.171,28.673,317.171,26.549L317.171,26.549z M314.129,34.5h-16.914
		c-5.679,0-8.84-2.523-8.84-7.951v-9.911c0-5.428,3.16-7.951,8.84-7.951h16.914c5.679,0,8.84,2.523,8.84,7.951v9.911
		C322.969,31.977,319.808,34.5,314.129,34.5L314.129,34.5z"/>
	<polygon points="228.499,-2.125 237.223,-2.125 235.39,4.98 230.332,4.98 	"/>
	<polygon points="240.421,-2.125 247.85,-2.125 243.352,4.98 238.102,4.98 	"/>
	<polygon points="217.872,-2.125 225.301,-2.125 227.619,4.98 222.37,4.98 	"/>
</g>
</svg>
